<svg width="24" height="24" viewBox="0 0 24 24" fill="none" xmlns="http://www.w3.org/2000/svg">
<path d="M21 12C21 7.03125 16.9688 3 12 3C7.03125 3 3 7.03125 3 12C3 16.9688 7.03125 21 12 21C16.9688 21 21 16.9688 21 12Z" stroke="#64646D" stroke-width="1.5" stroke-miterlimit="10"/>
<path d="M11.0007 8.03664L11.803 13.2223C11.838 13.4482 12.1634 13.4482 12.1983 13.2223L12.999 8.04535C13.0051 7.90953 12.9835 7.77388 12.9355 7.64669C12.8875 7.5195 12.814 7.40344 12.7196 7.3056C12.6252 7.20777 12.5118 7.13021 12.3864 7.07767C12.261 7.02513 12.1262 6.99872 11.9902 7.00005C11.8567 7.00135 11.7247 7.02941 11.6021 7.08256C11.4796 7.13571 11.3689 7.21287 11.2767 7.3095C11.1844 7.40612 11.1125 7.52025 11.0651 7.64514C11.0177 7.77003 10.9958 7.90315 11.0007 8.03664Z" fill="#64646D" stroke="#64646D" stroke-linecap="round" stroke-linejoin="round"/>
<path d="M12 17C11.8022 17 11.6089 16.9414 11.4444 16.8315C11.28 16.7216 11.1518 16.5654 11.0761 16.3827C11.0004 16.2 10.9806 15.9989 11.0192 15.8049C11.0578 15.6109 11.153 15.4327 11.2929 15.2929C11.4327 15.153 11.6109 15.0578 11.8049 15.0192C11.9989 14.9806 12.2 15.0004 12.3827 15.0761C12.5654 15.1518 12.7216 15.28 12.8315 15.4444C12.9414 15.6089 13 15.8022 13 16C13 16.2652 12.8947 16.5196 12.7071 16.7071C12.5196 16.8946 12.2652 17 12 17Z" fill="#64646D"/>
</svg>
