<svg width="80" height="80" viewBox="0 0 80 80" fill="none" xmlns="http://www.w3.org/2000/svg">
<path d="M0 0C-9.27438e-07 10.6087 4.21427 20.7828 11.7157 28.2843C19.2172 35.7857 29.3913 40 40 40C50.6087 40 60.7828 35.7857 68.2843 28.2843C75.7857 20.7828 80 10.6087 80 1.30337e-05L0 0Z" fill="#242424"/>
<path d="M0 40C-9.27438e-07 50.6087 4.21427 60.7828 11.7157 68.2843C19.2172 75.7857 29.3913 80 40 80C50.6087 80 60.7828 75.7857 68.2843 68.2843C75.7857 60.7828 80 50.6087 80 40L0 40Z" fill="#242424"/>
</svg>
