<svg width="80" height="80" viewBox="0 0 80 80" fill="none" xmlns="http://www.w3.org/2000/svg">
<path d="M0 80C10.6087 80 20.7828 75.7857 28.2843 68.2843C35.7857 60.7828 40 50.6087 40 40C40 29.3913 35.7857 19.2172 28.2843 11.7157C20.7828 4.21428 10.6087 -4.6372e-07 9.53674e-06 0L0 80Z" fill="#242424"/>
<path d="M40 80C50.6087 80 60.7828 75.7857 68.2843 68.2843C75.7857 60.7828 80 50.6087 80 40C80 29.3913 75.7857 19.2172 68.2843 11.7157C60.7828 4.21428 50.6087 -4.6372e-07 40 0L40 80Z" fill="#242424"/>
</svg>
