<svg width="current" height="current" viewBox="0 0 81 80" fill="none" xmlns="http://www.w3.org/2000/svg">
<rect x="0.25" width="80" height="80" rx="20" fill="#1B1B21"/>
<g clip-path="url(#clip0_249_4007)">
<path d="M30.5465 56.0417L19.3466 37.1577C18.779 36.2007 18.779 35.0167 19.3466 34.0597L30.5465 15.1855C31.1141 14.2285 32.1682 13.6365 33.3034 13.6365H55.7032C56.8384 13.6365 57.8925 14.2285 58.4601 15.1855L69.6598 34.0696L64.1562 37.1676L53.8583 19.8325H35.1278L25.7624 35.6186L36.04 52.9538L30.5363 56.0516L30.5465 56.0417Z" fill="#9C6CFF"/>
<path d="M46.5965 66.3028H24.2067C23.0716 66.3028 22.0175 65.7109 21.4499 64.7539L10.25 45.8698L15.7537 42.7718L26.0312 60.1068H44.7515L54.1171 44.3208L43.8396 26.9857L49.3432 23.8877L60.5429 42.7718C61.1105 43.7288 61.1105 44.9127 60.5429 45.8698L49.3432 64.7539C48.7756 65.7109 47.7215 66.3028 46.5863 66.3028H46.5965Z" fill="#05D2DD"/>
</g>
<defs>
<clipPath id="clip0_249_4007">
<rect width="59.0909" height="52.7273" fill="white" transform="translate(10.25 13.6365)"/>
</clipPath>
</defs>
</svg>
