<svg width="127" height="34" viewBox="0 0 127 34" fill="none" xmlns="http://www.w3.org/2000/svg">
<rect x="9" width="16.8571" height="17" rx="8.42855" fill="#FFCDC4"/>
<path d="M9 17H25.8571V34H9V17Z" fill="#FB5232"/>
<rect x="76.4292" width="16.8571" height="17" fill="#EBFFBF"/>
<rect x="76.4292" y="17" width="16.8571" height="17" fill="#EBFFBF"/>
<path d="M59.5721 0L93.2864 33.9999H59.5721V0Z" fill="#00B86E"/>
<path d="M25.8565 17C25.8565 7.61114 33.4037 0 42.7136 0V17H25.8565Z" fill="#F4CC3E"/>
<path d="M42.7136 0H59.5707C59.5707 9.38882 52.0235 17 42.7136 17V0Z" fill="#FFE9B1"/>
<path d="M25.8565 17H42.7136V34C33.4037 34 25.8565 26.3888 25.8565 17Z" fill="#F4CC3E"/>
<path d="M42.7136 17C52.0235 17 59.5707 24.6111 59.5707 34H42.7136V17Z" fill="#FFE9B1"/>
<path d="M93.2858 17C93.2858 14.7675 93.7218 12.5569 94.5689 10.4944C95.4161 8.43183 96.6578 6.55777 98.2231 4.97917C99.7884 3.40058 101.647 2.14837 103.692 1.29404C105.737 0.439717 107.929 -9.75842e-08 110.143 0L110.143 17H93.2858Z" fill="#BED4FF"/>
<path d="M127 17C127 19.2325 126.564 21.4431 125.717 23.5056C124.87 25.5681 123.628 27.4422 122.063 29.0208C120.497 30.5994 118.639 31.8516 116.594 32.7059C114.549 33.5602 112.357 34 110.143 34L110.143 17H127Z" fill="#5A4CFA"/>
<path d="M110.143 0H127L110.143 17V0Z" fill="#BED4FF"/>
<path d="M110.143 34H93.2858L110.143 17V34Z" fill="#5A4CFA"/>
</svg>
