<svg width="920" height="202" viewBox="0 0 920 202" fill="none" xmlns="http://www.w3.org/2000/svg">
<path d="M149.971 78.9997V64.5897H112.021V49.1897H147.001V34.7797H112.021V19.3797H149.311V4.96969H110.151C99.9215 4.96969 95.9615 10.3597 95.9615 18.8297V65.2497C95.9615 73.7197 99.9215 78.9997 110.151 78.9997H149.971Z" fill="#DAECD5"/>
<path d="M218.14 4.96969H158.52V19.8197H180.3V78.9997H196.36V19.8197H218.14V4.96969Z" fill="#DAECD5"/>
<path d="M272.027 46.5497C274.007 51.1697 276.977 54.3597 280.277 56.3397V78.9997H296.337V56.2297C299.637 54.2497 302.497 51.0597 304.367 46.5497L322.408 4.96969H305.027L289.958 42.1497C289.298 43.4697 288.967 44.3497 288.307 44.3497C287.647 44.3497 287.318 43.5797 286.658 42.1497L271.477 4.96969H254.207L272.027 46.5497Z" fill="#DAECD5"/>
<path d="M450.854 80.2097C472.854 80.2097 483.084 67.4497 483.084 46.1097V4.96969H467.024V45.7797C467.024 58.6497 461.744 64.9197 450.854 64.9197C439.964 64.9197 434.684 58.6497 434.684 45.7797V4.96969H418.624V46.1097C418.624 67.4497 428.744 80.2097 450.854 80.2097Z" fill="#DAECD5"/>
<path d="M518.076 78.9997L518.186 55.3497H524.456C532.816 55.3497 536.006 58.9797 539.416 65.7997L546.016 78.9997H563.396L556.246 64.3697C552.396 56.6697 549.646 51.6097 544.916 48.9697C554.376 46.4397 560.316 38.6297 560.316 28.5097C560.316 12.7797 547.446 4.96969 530.726 4.96969H502.236V78.9997H518.076ZM530.946 19.8197C538.206 19.8197 543.816 22.8997 543.816 30.1597C543.816 37.0897 538.316 41.0497 530.726 41.0497H518.186L518.296 19.8197H530.946Z" fill="#DAECD5"/>
<path d="M626.206 78.9997V24.2197L655.466 74.7097C657.886 78.7797 661.956 80.4297 666.686 80.4297C672.516 80.4297 677.906 76.2497 677.906 68.8797V4.96969H662.726V59.4197L633.466 9.25969C631.046 5.18969 627.196 3.42969 622.356 3.42969C616.306 3.42969 610.916 7.71969 610.916 15.0897V78.9997H626.206Z" fill="#DAECD5"/>
<path d="M689.501 78.9997H705.891L710.181 63.9297L740.211 63.8197L744.501 78.9997H760.891L741.311 15.4197C738.781 7.38969 732.181 3.53969 725.141 3.53969C718.211 3.53969 711.611 7.38969 709.081 15.4197L689.501 78.9997ZM722.831 20.1497C723.271 18.6097 724.041 17.9497 725.251 17.9497C726.571 17.9497 727.231 18.6097 727.671 20.1497L736.031 49.5197H714.361L722.831 20.1497Z" fill="#DAECD5"/>
<path d="M919.812 78.9997V64.5897H881.862V49.1897H916.842V34.7797H881.862V19.3797H919.152V4.96969H879.992C869.762 4.96969 865.802 10.3597 865.802 18.8297V65.2497C865.802 73.7197 869.762 78.9997 879.992 78.9997H919.812Z" fill="#DAECD5"/>
<path d="M69.361 200V145.22L98.621 195.71C101.041 199.78 105.111 201.43 109.841 201.43C115.671 201.43 121.061 197.25 121.061 189.88V125.97H105.881V180.42L76.621 130.26C74.201 126.19 70.351 124.43 65.511 124.43C59.461 124.43 54.071 128.72 54.071 136.09V200H69.361Z" fill="#DAECD5"/>
<path d="M179.247 189.55C180.897 197.36 186.177 201.54 192.997 201.54C199.377 201.54 204.877 197.36 206.527 190.21L217.747 141.26L229.077 189.88C230.837 197.36 236.117 201.54 242.717 201.54C249.867 201.54 254.707 197.03 256.357 189.22L269.557 125.97H253.497L242.277 184.6C242.167 184.93 242.167 185.15 242.057 185.15C241.837 185.15 241.837 185.04 241.727 184.6L230.837 137.63C228.747 128.72 224.347 124.87 217.747 124.87C211.147 124.87 206.637 128.72 204.657 137.74L193.987 184.6C193.877 185.04 193.767 185.15 193.657 185.15C193.547 185.15 193.437 185.04 193.327 184.6L181.667 125.97H165.607L179.247 189.55Z" fill="#DAECD5"/>
<path d="M381.671 125.97H365.611V186.25C365.611 194.72 369.571 200 379.801 200H416.211V185.15H381.671V125.97Z" fill="#DAECD5"/>
<path d="M444.4 125.97H428.34V186.25C428.34 194.72 432.299 200 442.53 200H478.94V185.15H444.4V125.97Z" fill="#DAECD5"/>
<path d="M543.978 200V185.59H506.028V170.19H541.008V155.78H506.028V140.38H543.318V125.97H504.158C493.928 125.97 489.968 131.36 489.968 139.83V186.25C489.968 194.72 493.928 200 504.158 200H543.978Z" fill="#DAECD5"/>
<path d="M612.146 125.97H552.526V140.82H574.306V200H590.366V140.82H612.146V125.97Z" fill="#DAECD5"/>
<rect y="120" width="39.4428" height="40.0003" rx="19.7214" fill="#FB5232"/>
<rect y="160" width="39.4428" height="40.0003" fill="#F4CC3E"/>
<path d="M773 3C794.784 3 812.444 20.6595 812.444 42.4435V43.001H773V3Z" fill="#00B86E"/>
<path d="M812.445 42.4435C812.445 20.6595 830.105 3 851.889 3V43.001H812.445V42.4435Z" fill="#FF77F3"/>
<rect x="773" y="42.9961" width="39.4435" height="40.001" fill="#F4CC3E"/>
<rect x="812.445" y="42.9961" width="39.4435" height="40.001" fill="#FB5232"/>
<path d="M314.448 121C336.233 121 353.893 138.91 353.893 161.002H334.17C323.278 161.002 314.448 152.048 314.448 141.001V121Z" fill="#FF77F3"/>
<path d="M314.448 180.997C314.448 169.951 323.278 160.996 334.17 160.996H353.893V200.999H314.448V180.997Z" fill="#00B86E"/>
<path d="M275 161.002C275 138.91 292.66 121 314.445 121V141.001C314.445 152.048 305.615 161.002 294.722 161.002H275Z" fill="#F4CC3E"/>
<path d="M275 160.996H294.722C305.615 160.996 314.445 169.951 314.445 180.997V200.999H275V160.996Z" fill="#5A4CFA"/>
<path d="M408 42C408 18.804 389.196 0 366 0V20.25C366 32.2622 375.738 42 387.75 42H408Z" fill="#5A4CFA"/>
<path d="M408 42C408 65.196 389.196 84 366 84V63.75C366 51.7378 375.738 42 387.75 42H408Z" fill="#F4CC3E"/>
<path d="M324 42C324 18.804 342.804 0 366 0V20.25C366 32.2622 356.262 42 344.25 42H324Z" fill="#FF77F3"/>
<path d="M324 42C324 65.196 342.804 84 366 84V63.75C366 51.7378 356.262 42 344.25 42H324Z" fill="#00B86E"/>
<path d="M0 23C0 11.9543 8.95431 3 20 3H40V43H20C8.95431 43 0 34.0457 0 23Z" fill="#00B86E"/>
<path d="M0 43H40V83H0V43Z" fill="#5A4CFA"/>
<rect x="40" y="3" width="40" height="40" fill="#FF77F3"/>
<path d="M40 43H60C71.0457 43 80 51.9543 80 63C80 74.0457 71.0457 83 60 83H40V43Z" fill="#F4CC3E"/>
</svg>
