<svg width="404" height="404" viewBox="0 0 404 404" fill="none" xmlns="http://www.w3.org/2000/svg">
<circle cx="202" cy="202" r="201" fill="#121212" stroke="#333333" stroke-width="2"/>
<path d="M402.881 202C402.881 175.604 397.682 149.467 387.581 125.081C377.48 100.694 362.675 78.5361 344.01 59.8715C325.345 41.207 303.187 26.4014 278.801 16.3002C254.414 6.19902 228.277 0.999999 201.881 1L201.881 202H402.881Z" stroke="#333333" stroke-width="2"/>
<path d="M202 402.762C175.604 402.762 149.467 397.563 125.081 387.462C100.694 377.36 78.5361 362.555 59.8715 343.89C41.207 325.226 26.4014 303.068 16.3002 278.681C6.19901 254.295 0.999998 228.157 1 201.762L202 201.762L202 402.762Z" stroke="#333333" stroke-width="2"/>
<path d="M202 402.762C228.396 402.762 254.533 397.563 278.919 387.462C303.306 377.36 325.464 362.555 344.128 343.89C362.793 325.226 377.599 303.068 387.7 278.681C397.801 254.295 403 228.157 403 201.762L202 201.762L202 402.762Z" fill="#242424"/>
<path d="M202 2.2656C175.604 2.2656 149.467 7.46461 125.081 17.5658C100.694 27.667 78.5361 42.4726 59.8715 61.1371C41.207 79.8017 26.4014 101.96 16.3002 126.346C6.19901 150.733 0.999998 176.87 1 203.266L202 203.266L202 2.2656Z" fill="#242424"/>
<circle cx="202" cy="201.999" r="80.9057" fill="#242424"/>
<path fill-rule="evenodd" clip-rule="evenodd" d="M207.533 39.4131C185.701 38.5543 163.923 42.1628 143.518 50.0201C123.106 57.8798 104.492 69.8274 88.8035 85.1391C73.1154 100.451 60.6796 118.808 52.2496 139.098C43.9999 158.954 39.7544 180.258 39.7544 201.77L39.7544 201.893L39.7556 202.391C39.7566 202.654 39.7582 202.917 39.7605 203.181C40.0335 234.824 49.4843 265.711 66.9672 292.039C84.7099 318.759 109.928 339.585 139.433 351.883C168.938 364.18 201.405 367.398 232.727 361.129C264.05 354.859 292.821 339.385 315.403 316.661L288.134 289.222C270.945 306.518 249.046 318.297 225.204 323.069C201.362 327.841 176.65 325.392 154.191 316.031C131.733 306.671 112.537 290.819 99.0322 270.48C85.7247 250.44 78.531 226.93 78.3232 202.844C78.3201 202.486 78.3186 202.128 78.3186 201.77C78.3185 185.395 81.5501 169.18 87.8295 154.066C94.2462 138.622 103.712 124.649 115.653 112.994C127.595 101.339 141.763 92.245 157.3 86.2624C171.741 80.702 187.084 77.9371 202.524 78.1012C218.736 78.1012 234.79 81.7235 249.768 87.9166C264.747 94.1097 278.356 103.187 289.82 114.63C301.284 126.074 310.378 139.659 316.582 154.61C322.787 169.562 325.98 185.587 325.98 201.77L326.01 218.018C326.01 229.305 316.86 238.455 305.574 238.455C294.287 238.455 286.703 229.48 286.703 218.193L286.726 125.079H250.33V131.467C238.846 123.588 225.333 118.45 210.736 116.998C207.614 116.648 204.441 116.467 201.226 116.467C154.408 116.467 116.454 154.659 116.454 201.77C116.454 248.881 154.408 287.072 201.226 287.072C205.997 287.072 210.676 286.676 215.232 285.914C234.476 282.96 251.597 273.565 264.325 259.999C274.945 270.435 289.507 276.872 305.574 276.872C338.078 276.872 364.428 250.522 364.428 218.018L364.716 201.77C364.716 180.509 360.521 159.456 352.37 139.813C344.219 120.171 332.272 102.323 317.211 87.2889C302.15 72.2551 284.27 60.3295 264.592 52.1933C246.458 44.6954 227.124 40.0173 207.533 39.4131ZM279.493 201.986C238.617 198.196 206.241 165.821 202.451 124.945C198.661 165.821 166.286 198.196 125.41 201.986C166.286 205.776 198.661 238.151 202.451 279.027C206.241 238.151 238.617 205.776 279.493 201.986Z" fill="#121212" stroke="#333333" stroke-width="2"/>
</svg>
