<svg width="946" height="201" viewBox="0 0 946 201" fill="none" xmlns="http://www.w3.org/2000/svg">
<path d="M516.01 0.916016C536.72 0.916016 553.509 17.7049 553.509 38.4151V38.9452H516.01V0.916016Z" fill="#00B86E"/>
<path d="M553.511 38.4151C553.511 17.7049 570.3 0.916016 591.01 0.916016V38.9452H553.511V38.4151Z" fill="#FF77F3"/>
<rect x="516.01" y="38.9414" width="37.4991" height="38.0292" fill="#F4CC3E"/>
<rect x="553.511" y="38.9414" width="37.4991" height="38.0292" fill="#FB5232"/>
<path d="M155.51 41.5C155.51 18.5802 136.93 0 114.01 0V19.75C114.01 31.7622 123.748 41.5 135.76 41.5H155.51Z" fill="#5A4CFA"/>
<path d="M155.51 41.5C155.51 64.4198 136.93 83 114.01 83V63.25C114.01 51.2378 123.748 41.5 135.76 41.5H155.51Z" fill="#F4CC3E"/>
<path d="M72.5098 41.5C72.5098 18.5802 91.0899 0 114.01 0V19.75C114.01 31.7622 104.272 41.5 92.2598 41.5H72.5098Z" fill="#FF77F3"/>
<path d="M72.5098 41.5C72.5098 64.4198 91.0899 83 114.01 83V63.25C114.01 51.2378 104.272 41.5 92.2598 41.5H72.5098Z" fill="#00B86E"/>
<path d="M17.82 44.5498C19.8 49.1698 22.77 52.3598 26.07 54.3398V76.9998H42.13V54.2298C45.43 52.2498 48.29 49.0598 50.16 44.5498L68.2 2.9698H50.82L35.75 40.1498C35.09 41.4698 34.76 42.3498 34.1 42.3498C33.44 42.3498 33.11 41.5798 32.45 40.1498L17.27 2.9698H0L17.82 44.5498Z" fill="#DAECD5"/>
<path d="M199.842 78.2098C221.842 78.2098 232.072 65.4498 232.072 44.1098V2.9698H216.012V43.7798C216.012 56.6498 210.732 62.9198 199.842 62.9198C188.952 62.9198 183.672 56.6498 183.672 43.7798V2.9698H167.612V44.1098C167.612 65.4498 177.732 78.2098 199.842 78.2098Z" fill="#DAECD5"/>
<path d="M265.889 76.9998L265.999 53.3498H272.269C280.629 53.3498 283.819 56.9798 287.229 63.7998L293.829 76.9998H311.209L304.059 62.3698C300.209 54.6698 297.459 49.6098 292.729 46.9698C302.189 44.4398 308.129 36.6298 308.129 26.5098C308.129 10.7798 295.259 2.9698 278.539 2.9698H250.049V76.9998H265.889ZM278.759 17.8198C286.019 17.8198 291.629 20.8998 291.629 28.1598C291.629 35.0898 286.129 39.0498 278.539 39.0498H265.999L266.109 17.8198H278.759Z" fill="#DAECD5"/>
<path d="M371.668 76.9998V22.2198L400.928 72.7098C403.348 76.7798 407.418 78.4298 412.148 78.4298C417.978 78.4298 423.368 74.2498 423.368 66.8798V2.9698H408.188V57.4198L378.928 7.25981C376.508 3.18981 372.658 1.4298 367.818 1.4298C361.768 1.4298 356.378 5.71981 356.378 13.0898V76.9998H371.668Z" fill="#DAECD5"/>
<path d="M434.787 76.9998H451.177L455.467 61.9298L485.497 61.8198L489.787 76.9998H506.177L486.597 13.4198C484.067 5.3898 477.467 1.5398 470.427 1.5398C463.497 1.5398 456.897 5.3898 454.367 13.4198L434.787 76.9998ZM468.117 18.1498C468.557 16.6098 469.327 15.9498 470.537 15.9498C471.857 15.9498 472.517 16.6098 472.957 18.1498L481.317 47.5198H459.647L468.117 18.1498Z" fill="#DAECD5"/>
<path d="M658.406 76.9998V62.5898H620.456V47.1898H655.436V32.7798H620.456V17.3798H657.746V2.9698H618.586C608.356 2.9698 604.396 8.3598 604.396 16.8298V63.2498C604.396 71.7198 608.356 76.9998 618.586 76.9998H658.406Z" fill="#DAECD5"/>
<path d="M720.56 76.7797V51.6997H755.1V36.9597H720.56V17.5997H757.63V2.74969H718.69C708.57 2.74969 704.5 8.13969 704.5 16.6097V76.7797H720.56Z" fill="#DAECD5"/>
<path d="M803.032 78.2097C824.922 78.2097 841.643 61.7097 841.643 39.8197C841.643 18.0397 825.032 1.42969 803.032 1.42969C781.142 1.42969 764.532 18.0397 764.532 39.8197C764.532 61.7097 781.142 78.2097 803.032 78.2097ZM803.032 63.0297C790.712 63.0297 781.032 52.9097 781.032 39.8197C781.032 26.7297 790.712 16.6097 803.032 16.6097C815.462 16.6097 825.032 26.7297 825.032 39.8197C825.032 52.9097 815.352 63.0297 803.032 63.0297Z" fill="#DAECD5"/>
<path d="M868.071 76.7797L868.181 53.1297H874.451C882.811 53.1297 886.001 56.7597 889.411 63.5797L896.011 76.7797H913.391L906.241 62.1497C902.391 54.4497 899.641 49.3897 894.911 46.7497C904.371 44.2197 910.311 36.4097 910.311 26.2897C910.311 10.5597 897.441 2.74969 880.721 2.74969H852.231V76.7797H868.071ZM880.941 17.5997C888.201 17.5997 893.811 20.6797 893.811 27.9397C893.811 34.8697 888.311 38.8297 880.721 38.8297H868.181L868.291 17.5997H880.941Z" fill="#DAECD5"/>
<path d="M324.979 199.395V144.742L354.171 195.115C356.585 199.176 360.646 200.822 365.365 200.822C371.182 200.822 376.559 196.651 376.559 189.299V125.536H361.414V179.86L332.222 129.817C329.808 125.756 325.966 124 321.138 124C315.102 124 309.724 128.28 309.724 135.633V199.395H324.979Z" fill="#DAECD5"/>
<path d="M445.739 125.536H386.257V140.352H407.987V199.395H424.009V140.352H445.739V125.536Z" fill="#DAECD5"/>
<path d="M510.082 199.395V185.018H472.219V169.654H507.118V155.277H472.219V139.913H509.423V125.536H470.354C460.147 125.536 456.197 130.914 456.197 139.364V185.677C456.197 194.127 460.147 199.395 470.354 199.395H510.082Z" fill="#DAECD5"/>
<path d="M639.731 200.932C652.571 200.932 664.863 194.127 670.35 182.604L657.29 175.251C653.888 181.616 647.962 185.677 639.073 185.677C626.671 185.677 617.892 175.91 617.892 162.521C617.892 149.132 626.781 139.364 639.073 139.364C647.962 139.364 653.669 143.425 657.29 149.79L670.35 142.437C664.863 130.914 652.571 124.11 639.731 124.11C618.221 124.11 601.43 141.12 601.43 162.521C601.43 183.921 618.221 200.932 639.731 200.932Z" fill="#DAECD5"/>
<path d="M697.76 199.395V169.983H731.452V199.395H747.475V125.536H731.452V155.277H697.76V125.536H681.737V199.395H697.76Z" fill="#DAECD5"/>
<path d="M843.719 125.536V199.395H859.742V125.536H843.719Z" fill="#DAECD5"/>
<path d="M893.894 199.395V144.742L923.086 195.115C925.5 199.176 929.561 200.822 934.28 200.822C940.097 200.822 945.474 196.651 945.474 189.299V125.536H930.329V179.86L901.137 129.817C898.723 125.756 894.882 124 890.053 124C884.017 124 878.639 128.28 878.639 135.633V199.395H893.894Z" fill="#DAECD5"/>
<path d="M522.01 125.018H559.547V162.555H522.01V125.018Z" fill="#FB5232"/>
<path d="M522.01 162.554H559.547V200.091H522.01V162.554Z" fill="#F4CC3E"/>
<path d="M559.548 125.018H578.317C588.682 125.018 597.085 133.421 597.085 143.786C597.085 154.152 588.682 162.555 578.317 162.555H559.548V125.018Z" fill="#00B86E"/>
<path d="M559.548 162.554L597.085 200.091H559.548V162.554Z" fill="#5A4CFA"/>
<path d="M796.354 124.018C817.169 124.018 834.044 140.892 834.044 161.707H815.199C804.791 161.707 796.354 153.27 796.354 142.862V124.018Z" fill="#FF77F3"/>
<path d="M796.354 180.551C796.354 170.143 804.791 161.706 815.199 161.706H834.044V199.396H796.354V180.551Z" fill="#00B86E"/>
<path d="M758.664 161.707C758.664 140.892 775.538 124.018 796.353 124.018V142.862C796.353 153.27 787.916 161.707 777.508 161.707H758.664Z" fill="#F4CC3E"/>
<path d="M758.664 161.706H777.508C787.916 161.706 796.353 170.143 796.353 180.551V199.396H758.664V161.706Z" fill="#5A4CFA"/>
<rect x="259.005" y="124.019" width="37.9915" height="37.9915" rx="18.9957" fill="#FB5232"/>
<rect x="259.005" y="162.01" width="37.9915" height="37.9915" fill="#F4CC3E"/>
<path d="M61.16 125.97H1.54004V140.82H23.32V200H39.38V140.82H61.16V125.97Z" fill="#DAECD5"/>
<path d="M88.8018 200V170.52H122.572V200H138.632V125.97H122.572V155.78H88.8018V125.97H72.7418V200H88.8018Z" fill="#DAECD5"/>
<path d="M211.374 200V185.59H173.424V170.19H208.404V155.78H173.424V140.38H210.714V125.97H171.554C161.324 125.97 157.364 131.36 157.364 139.83V186.25C157.364 194.72 161.324 200 171.554 200H211.374Z" fill="#DAECD5"/>
</svg>
