<svg width="946" height="202" viewBox="0 0 946 202" fill="none" xmlns="http://www.w3.org/2000/svg">
<path d="M691.953 69.1477H690.18C690.112 68.7689 689.985 68.4356 689.8 68.1477C689.614 67.8598 689.387 67.6155 689.118 67.4148C688.849 67.214 688.548 67.0625 688.214 66.9602C687.885 66.858 687.534 66.8068 687.163 66.8068C686.493 66.8068 685.892 66.9754 685.362 67.3125C684.836 67.6496 684.419 68.1439 684.112 68.7955C683.809 69.447 683.657 70.2424 683.657 71.1818C683.657 72.1288 683.809 72.928 684.112 73.5795C684.419 74.2311 684.837 74.7235 685.368 75.0568C685.898 75.3902 686.495 75.5568 687.157 75.5568C687.525 75.5568 687.873 75.5076 688.203 75.4091C688.536 75.3068 688.837 75.1572 689.106 74.9602C689.375 74.7633 689.603 74.5227 689.788 74.2386C689.978 73.9508 690.108 73.6212 690.18 73.25L691.953 73.2557C691.858 73.8277 691.675 74.3542 691.402 74.8352C691.133 75.3125 690.786 75.7254 690.362 76.0739C689.942 76.4186 689.461 76.6856 688.919 76.875C688.377 77.0644 687.786 77.1591 687.146 77.1591C686.139 77.1591 685.241 76.9205 684.453 76.4432C683.665 75.9621 683.044 75.2746 682.589 74.3807C682.139 73.4867 681.913 72.4205 681.913 71.1818C681.913 69.9394 682.14 68.8731 682.595 67.983C683.05 67.089 683.671 66.4034 684.459 65.9261C685.247 65.4451 686.142 65.2045 687.146 65.2045C687.764 65.2045 688.339 65.2936 688.873 65.4716C689.411 65.6458 689.894 65.9034 690.322 66.2443C690.75 66.5814 691.104 66.9943 691.385 67.483C691.665 67.9678 691.854 68.5227 691.953 69.1477ZM696.256 65.3636V77H694.557V65.3636H696.256ZM700.301 77H698.437L702.625 65.3636H704.653L708.841 77H706.977L703.687 67.4773H703.597L700.301 77ZM700.614 72.4432H706.659V73.9205H700.614V72.4432ZM712.917 65.3636V77H711.161V65.3636H712.917ZM716.114 65.3636H718.244L721.949 74.4091H722.085L725.79 65.3636H727.921V77H726.25V68.5795H726.142L722.71 76.983H721.324L717.892 68.5739H717.784V77H716.114V65.3636ZM738.266 77L735.039 65.3636H736.885L739.152 74.375H739.26L741.618 65.3636H743.448L745.806 74.3807H745.914L748.175 65.3636H750.027L746.794 77H745.027L742.578 68.2841H742.488L740.039 77H738.266ZM754.024 65.3636V77H752.268V65.3636H754.024ZM756.647 66.875V65.3636H765.652V66.875H762.022V77H760.272V66.875H756.647ZM768.283 77V65.3636H770.038V70.4205H775.839V65.3636H777.601V77H775.839V71.9261H770.038V77H768.283ZM785.098 66.875V65.3636H794.104V66.875H790.473V77H788.723V66.875H785.098ZM799.012 77L795.785 65.3636H797.632L799.899 74.375H800.007L802.364 65.3636H804.194L806.552 74.3807H806.66L808.921 65.3636H810.774L807.541 77H805.774L803.325 68.2841H803.234L800.785 77H799.012ZM814.77 65.3636V77H813.014V65.3636H814.77ZM817.393 66.875V65.3636H826.399V66.875H822.768V77H821.018V66.875H817.393ZM828.455 66.875V65.3636H837.461V66.875H833.83V77H832.08V66.875H828.455ZM840.091 77V65.3636H847.386V66.875H841.846V70.4205H847.005V71.9261H841.846V75.4886H847.454V77H840.091ZM850.371 77V65.3636H854.519C855.421 65.3636 856.169 65.5189 856.763 65.8295C857.362 66.1402 857.809 66.5701 858.104 67.1193C858.4 67.6648 858.547 68.2955 858.547 69.0114C858.547 69.7235 858.398 70.3504 858.099 70.892C857.803 71.4299 857.356 71.8485 856.758 72.1477C856.163 72.447 855.415 72.5966 854.513 72.5966H851.371V71.0852H854.354C854.922 71.0852 855.385 71.0038 855.741 70.8409C856.1 70.678 856.364 70.4413 856.53 70.1307C856.697 69.8201 856.78 69.447 856.78 69.0114C856.78 68.572 856.695 68.1913 856.525 67.8693C856.358 67.5473 856.095 67.3011 855.735 67.1307C855.379 66.9564 854.911 66.8693 854.332 66.8693H852.127V77H850.371ZM856.116 71.75L858.991 77H856.991L854.172 71.75H856.116Z" fill="#5B5B5B"/>
<path d="M891.544 65.2736C890.826 65.5767 890.054 65.779 889.24 65.8747C890.067 65.406 890.704 64.6586 891.003 63.7757C890.229 64.2086 889.37 64.5267 888.457 64.6943C887.728 63.9572 886.688 63.5 885.535 63.5C883.322 63.5 881.527 65.1955 881.527 67.2862C881.527 67.5821 881.564 67.8702 881.632 68.15C878.302 67.9907 875.348 66.4814 873.372 64.191C873.025 64.7507 872.83 65.406 872.83 66.0976C872.83 67.4119 873.535 68.569 874.612 69.2507C873.955 69.2316 873.336 69.0572 872.795 68.7779C872.795 68.7893 872.795 68.8064 872.795 68.8224C872.795 70.6591 874.177 72.1886 876.008 72.5367C875.674 72.6241 875.32 72.6728 874.955 72.6728C874.697 72.6728 874.444 72.6448 874.2 72.6029C874.71 74.104 876.19 75.201 877.943 75.2336C876.571 76.2474 874.844 76.8547 872.965 76.8547C872.641 76.8547 872.323 76.8371 872.01 76.8009C873.785 77.8721 875.892 78.5 878.154 78.5C885.525 78.5 889.557 72.7297 889.557 67.7238C889.557 67.5598 889.551 67.3964 889.543 67.235C890.33 66.7053 891.008 66.0371 891.544 65.2736Z" fill="#03A9F4"/>
<path d="M516.01 0.916016C536.72 0.916016 553.509 17.7049 553.509 38.4151V38.9452H516.01V0.916016Z" fill="#00B86E"/>
<path d="M553.511 38.4151C553.511 17.7049 570.3 0.916016 591.01 0.916016V38.9452H553.511V38.4151Z" fill="#FF77F3"/>
<rect x="516.01" y="38.9414" width="37.4991" height="38.0292" fill="#F4CC3E"/>
<rect x="553.511" y="38.9414" width="37.4991" height="38.0292" fill="#FB5232"/>
<path d="M155.51 41.5C155.51 18.5802 136.93 0 114.01 0V19.75C114.01 31.7622 123.748 41.5 135.76 41.5H155.51Z" fill="#5A4CFA"/>
<path d="M155.51 41.5C155.51 64.4198 136.93 83 114.01 83V63.25C114.01 51.2378 123.748 41.5 135.76 41.5H155.51Z" fill="#F4CC3E"/>
<path d="M72.5098 41.5C72.5098 18.5802 91.0899 0 114.01 0V19.75C114.01 31.7622 104.272 41.5 92.2598 41.5H72.5098Z" fill="#FF77F3"/>
<path d="M72.5098 41.5C72.5098 64.4198 91.0899 83 114.01 83V63.25C114.01 51.2378 104.272 41.5 92.2598 41.5H72.5098Z" fill="#00B86E"/>
<path d="M17.82 44.5497C19.8 49.1697 22.77 52.3597 26.07 54.3397V76.9997H42.13V54.2297C45.43 52.2497 48.29 49.0597 50.16 44.5497L68.2 2.96969H50.82L35.75 40.1497C35.09 41.4697 34.76 42.3497 34.1 42.3497C33.44 42.3497 33.11 41.5797 32.45 40.1497L17.27 2.96969H0L17.82 44.5497Z" fill="#DAECD5"/>
<path d="M199.842 78.2097C221.842 78.2097 232.072 65.4497 232.072 44.1097V2.96969H216.012V43.7797C216.012 56.6497 210.732 62.9197 199.842 62.9197C188.952 62.9197 183.672 56.6497 183.672 43.7797V2.96969H167.612V44.1097C167.612 65.4497 177.732 78.2097 199.842 78.2097Z" fill="#DAECD5"/>
<path d="M265.889 76.9997L265.999 53.3497H272.269C280.629 53.3497 283.819 56.9797 287.229 63.7997L293.829 76.9997H311.209L304.059 62.3697C300.209 54.6697 297.459 49.6097 292.729 46.9697C302.189 44.4397 308.129 36.6297 308.129 26.5097C308.129 10.7797 295.259 2.96969 278.539 2.96969H250.049V76.9997H265.889ZM278.759 17.8197C286.019 17.8197 291.629 20.8997 291.629 28.1597C291.629 35.0897 286.129 39.0497 278.539 39.0497H265.999L266.109 17.8197H278.759Z" fill="#DAECD5"/>
<path d="M371.668 76.9997V22.2197L400.928 72.7097C403.348 76.7797 407.418 78.4297 412.148 78.4297C417.978 78.4297 423.368 74.2497 423.368 66.8797V2.96969H408.188V57.4197L378.928 7.25969C376.508 3.18969 372.658 1.42969 367.818 1.42969C361.768 1.42969 356.378 5.71969 356.378 13.0897V76.9997H371.668Z" fill="#DAECD5"/>
<path d="M434.787 76.9997H451.177L455.467 61.9297L485.497 61.8197L489.787 76.9997H506.177L486.597 13.4197C484.067 5.38969 477.467 1.53969 470.427 1.53969C463.497 1.53969 456.897 5.38969 454.367 13.4197L434.787 76.9997ZM468.117 18.1497C468.557 16.6097 469.327 15.9497 470.537 15.9497C471.857 15.9497 472.517 16.6097 472.957 18.1497L481.317 47.5197H459.647L468.117 18.1497Z" fill="#DAECD5"/>
<path d="M658.406 76.9997V62.5897H620.456V47.1897H655.436V32.7797H620.456V17.3797H657.746V2.96969H618.586C608.356 2.96969 604.396 8.35969 604.396 16.8297V63.2497C604.396 71.7197 608.356 76.9997 618.586 76.9997H658.406Z" fill="#DAECD5"/>
<path d="M24.2 200V174.92H58.74V160.18H24.2V140.82H61.27V125.97H22.33C12.21 125.97 8.14 131.36 8.14 139.83V200H24.2Z" fill="#DAECD5"/>
<path d="M106.673 201.43C128.562 201.43 145.283 184.93 145.283 163.04C145.283 141.26 128.673 124.65 106.673 124.65C84.7825 124.65 68.1725 141.26 68.1725 163.04C68.1725 184.93 84.7825 201.43 106.673 201.43ZM106.673 186.25C94.3525 186.25 84.6725 176.13 84.6725 163.04C84.6725 149.95 94.3525 139.83 106.673 139.83C119.103 139.83 128.673 149.95 128.673 163.04C128.673 176.13 118.993 186.25 106.673 186.25Z" fill="#DAECD5"/>
<path d="M171.711 200L171.821 176.35H178.091C186.451 176.35 189.641 179.98 193.051 186.8L199.651 200H217.031L209.881 185.37C206.031 177.67 203.281 172.61 198.551 169.97C208.011 167.44 213.951 159.63 213.951 149.51C213.951 133.78 201.081 125.97 184.361 125.97H155.871V200H171.711ZM184.581 140.82C191.841 140.82 197.451 143.9 197.451 151.16C197.451 158.09 191.951 162.05 184.361 162.05H171.821L171.931 140.82H184.581Z" fill="#DAECD5"/>
<path d="M324.979 199.395V144.742L354.171 195.115C356.585 199.176 360.646 200.822 365.365 200.822C371.182 200.822 376.559 196.651 376.559 189.299V125.536H361.414V179.86L332.222 129.817C329.808 125.756 325.966 124 321.138 124C315.102 124 309.724 128.28 309.724 135.633V199.395H324.979Z" fill="#DAECD5"/>
<path d="M445.739 125.536H386.257V140.352H407.987V199.395H424.009V140.352H445.739V125.536Z" fill="#DAECD5"/>
<path d="M510.082 199.395V185.018H472.219V169.654H507.118V155.277H472.219V139.913H509.423V125.536H470.354C460.147 125.536 456.197 130.914 456.197 139.364V185.677C456.197 194.127 460.147 199.395 470.354 199.395H510.082Z" fill="#DAECD5"/>
<path d="M639.731 200.932C652.571 200.932 664.863 194.127 670.35 182.604L657.29 175.251C653.888 181.616 647.962 185.677 639.073 185.677C626.671 185.677 617.892 175.91 617.892 162.521C617.892 149.132 626.781 139.364 639.073 139.364C647.962 139.364 653.669 143.425 657.29 149.79L670.35 142.437C664.863 130.914 652.571 124.11 639.731 124.11C618.221 124.11 601.43 141.12 601.43 162.521C601.43 183.921 618.221 200.932 639.731 200.932Z" fill="#DAECD5"/>
<path d="M697.76 199.395V169.983H731.452V199.395H747.475V125.536H731.452V155.277H697.76V125.536H681.737V199.395H697.76Z" fill="#DAECD5"/>
<path d="M843.719 125.536V199.395H859.742V125.536H843.719Z" fill="#DAECD5"/>
<path d="M893.894 199.395V144.742L923.086 195.115C925.5 199.176 929.561 200.822 934.28 200.822C940.097 200.822 945.474 196.651 945.474 189.299V125.536H930.329V179.86L901.137 129.817C898.723 125.756 894.882 124 890.053 124C884.017 124 878.639 128.28 878.639 135.633V199.395H893.894Z" fill="#DAECD5"/>
<path d="M522.01 125.018H559.547V162.555H522.01V125.018Z" fill="#FB5232"/>
<path d="M522.01 162.554H559.547V200.091H522.01V162.554Z" fill="#F4CC3E"/>
<path d="M559.548 125.018H578.317C588.682 125.018 597.085 133.421 597.085 143.786C597.085 154.152 588.682 162.555 578.317 162.555H559.548V125.018Z" fill="#00B86E"/>
<path d="M559.548 162.554L597.085 200.091H559.548V162.554Z" fill="#5A4CFA"/>
<path d="M796.354 124.018C817.169 124.018 834.044 140.892 834.044 161.707H815.199C804.791 161.707 796.354 153.27 796.354 142.862V124.018Z" fill="#FF77F3"/>
<path d="M796.354 180.551C796.354 170.143 804.791 161.706 815.199 161.706H834.044V199.396H796.354V180.551Z" fill="#00B86E"/>
<path d="M758.664 161.707C758.664 140.892 775.538 124.018 796.353 124.018V142.862C796.353 153.27 787.916 161.707 777.508 161.707H758.664Z" fill="#F4CC3E"/>
<path d="M758.664 161.706H777.508C787.916 161.706 796.353 170.143 796.353 180.551V199.396H758.664V161.706Z" fill="#5A4CFA"/>
<rect x="259.005" y="124.019" width="37.9915" height="37.9915" rx="18.9957" fill="#FB5232"/>
<rect x="259.005" y="162.01" width="37.9915" height="37.9915" fill="#F4CC3E"/>
</svg>
