<svg width="21" height="21" viewBox="0 0 21 21" fill="none" xmlns="http://www.w3.org/2000/svg">
<path d="M9.08358 3.5C5.9967 3.5 3.5 5.93947 3.5 8.95559C3.5 11.9717 5.9967 14.4112 9.08358 14.4112C10.1857 14.4112 11.2056 14.0953 12.0704 13.5587L16.1041 17.5L17.5 16.1361L13.5176 12.255C14.2335 11.3374 14.6672 10.2004 14.6672 8.95559C14.6672 5.93947 12.1705 3.5 9.08358 3.5ZM9.08358 4.78367C11.4481 4.78367 13.3534 6.64524 13.3534 8.95559C13.3534 11.2659 11.4481 13.1275 9.08358 13.1275C6.71902 13.1275 4.81378 11.2659 4.81378 8.95559C4.81378 6.64524 6.71902 4.78367 9.08358 4.78367Z" fill="#5B5B5B"/>
</svg>
