<svg width="32" height="33" viewBox="0 0 32 33" fill="none" xmlns="http://www.w3.org/2000/svg">
<path d="M28 8.786C27.118 9.17667 26.1694 9.43733 25.1687 9.56067C26.186 8.95667 26.9687 7.99333 27.336 6.85533C26.384 7.41333 25.3294 7.82333 24.2074 8.03933C23.3114 7.08933 22.0334 6.5 20.6174 6.5C17.8974 6.5 15.6927 8.68533 15.6927 11.38C15.6927 11.7613 15.7374 12.1327 15.8214 12.4933C11.7294 12.288 8.10005 10.3427 5.67205 7.39067C5.24538 8.112 5.00538 8.95667 5.00538 9.848C5.00538 11.542 5.87271 13.0333 7.19538 13.912C6.38805 13.8873 5.62805 13.6627 4.96271 13.3027C4.96271 13.3173 4.96271 13.3393 4.96271 13.36C4.96271 15.7273 6.66071 17.6987 8.91138 18.1473C8.50005 18.26 8.06538 18.3227 7.61738 18.3227C7.29938 18.3227 6.98938 18.2867 6.68938 18.2327C7.31605 20.1673 9.13405 21.5813 11.288 21.6233C9.60271 22.93 7.48005 23.7127 5.17205 23.7127C4.77338 23.7127 4.38338 23.69 3.99805 23.6433C6.17871 25.024 8.76805 25.8333 11.5474 25.8333C20.604 25.8333 25.5587 18.396 25.5587 11.944C25.5587 11.7327 25.552 11.522 25.542 11.314C26.5087 10.6313 27.342 9.77 28 8.786Z" fill="#03A9F4"/>
</svg>
