<svg width="28" height="29" viewBox="0 0 28 29" fill="none" xmlns="http://www.w3.org/2000/svg">
<path d="M24.3502 7.84668C23.5894 8.18363 22.7712 8.40845 21.9081 8.51483C22.7856 7.99388 23.4606 7.163 23.7775 6.18148C22.9564 6.66275 22.0467 7.01638 21.079 7.20268C20.3062 6.3833 19.2039 5.875 17.9826 5.875C15.6366 5.875 13.7351 7.75985 13.7351 10.084C13.7351 10.4129 13.7736 10.7332 13.8461 11.0443C10.3167 10.8672 7.18641 9.1893 5.09226 6.6432C4.72426 7.26535 4.51726 7.99388 4.51726 8.76265C4.51726 10.2237 5.26534 11.51 6.40614 12.2679C5.70981 12.2466 5.05431 12.0528 4.48046 11.7423C4.48046 11.755 4.48046 11.7739 4.48046 11.7918C4.48046 13.8336 5.94499 15.5339 7.88619 15.9208C7.53141 16.018 7.15651 16.0721 6.77011 16.0721C6.49584 16.0721 6.22846 16.041 5.96971 15.9944C6.51021 17.6631 8.07824 18.8827 9.93606 18.9189C8.48246 20.0459 6.65166 20.7209 4.66101 20.7209C4.31716 20.7209 3.98079 20.7014 3.64844 20.6611C5.52926 21.852 7.76256 22.55 10.1597 22.55C17.9711 22.55 22.2445 16.1353 22.2445 10.5705C22.2445 10.3882 22.2388 10.2065 22.2301 10.0271C23.0639 9.43828 23.7826 8.69538 24.3502 7.84668Z" fill="#5081FF"/>
</svg>
