<svg width="40" height="40" viewBox="0 0 40 40" fill="none" xmlns="http://www.w3.org/2000/svg">
<path d="M35 20C35 11.7188 28.2812 5 20 5C11.7188 5 5 11.7188 5 20C5 28.2813 11.7188 35 20 35C28.2812 35 35 28.2813 35 20Z" stroke="#6F6F6F" stroke-width="1.95" stroke-miterlimit="10"/>
<path d="M18.3344 13.3945L19.7441 22.5057C19.7895 22.7994 20.2125 22.7994 20.258 22.5057L21.6649 13.409C21.6751 13.1826 21.6391 12.9565 21.5591 12.7446C21.479 12.5326 21.3566 12.3391 21.1992 12.1761C21.0419 12.013 20.8529 11.8838 20.6439 11.7962C20.4349 11.7086 20.2102 11.6646 19.9837 11.6668C19.761 11.669 19.5411 11.7158 19.3368 11.8043C19.1326 11.8929 18.9481 12.0215 18.7944 12.1826C18.6406 12.3436 18.5207 12.5338 18.4417 12.742C18.3627 12.9501 18.3262 13.172 18.3344 13.3945Z" fill="#6F6F6F" stroke="#6F6F6F" stroke-width="1.3" stroke-linecap="round" stroke-linejoin="round"/>
<path d="M19.9999 28.3333C19.6703 28.3333 19.3481 28.2356 19.074 28.0524C18.7999 27.8693 18.5863 27.609 18.4601 27.3045C18.334 26.9999 18.301 26.6648 18.3653 26.3415C18.4296 26.0182 18.5883 25.7212 18.8214 25.4882C19.0545 25.2551 19.3515 25.0963 19.6748 25.032C19.9981 24.9677 20.3332 25.0007 20.6377 25.1269C20.9423 25.253 21.2026 25.4666 21.3857 25.7407C21.5688 26.0148 21.6666 26.337 21.6666 26.6667C21.6666 27.1087 21.491 27.5326 21.1784 27.8452C20.8659 28.1577 20.442 28.3333 19.9999 28.3333Z" fill="#6F6F6F"/>
</svg>
